<svg xmlns="http://www.w3.org/2000/svg" width="71" height="72" viewBox="0 0 71 72"><g><g><path fill="#f26522" d="M14.91 21.264l-2.765-4.063 6.414-4.418V4.685h6.16v3.853L35.709.97l1.4-.97 1.374.972 23.786 16.366-2.764 4.066-2.922-2.012v24.594c-.403.385-.807.77-1.219 1.15a94.652 94.652 0 0 1-3.677 3.193v-32.01L37.08 5.996 22.139 16.333v26.025h-4.895V19.657zM38.084 41.81h-3.346v-2.72c-1.612-.13-3.225-.613-4.22-1.28l-.33-.222 1.048-3.67.605.36c1.225.727 2.69 1.144 4.02 1.144 1.443 0 2.376-.645 2.376-1.642 0-.683-.321-1.432-2.645-2.286-2.532-.922-5.122-2.293-5.122-5.475 0-2.56 1.687-4.504 4.435-5.156v-2.818h3.345v2.605c1.299.098 2.42.402 3.5.944l.407.205-1.05 3.595-.727-.336c-.652-.306-1.747-.819-3.363-.819-1.297 0-2.072.52-2.072 1.393 0 .759.726 1.296 2.99 2.207 3.363 1.27 4.805 2.956 4.805 5.635 0 2.673-1.813 4.746-4.656 5.385zm30.41 15.941c-4.12 4.594-15.476 13.867-31.926 13.867H17.472c-2.64 0-5.23-1.138-6.9-2.065 0 0-.504-.37-.87-.55V72H0V43.783h9.701v2.721a10.142 10.142 0 0 1 5.49-1.628l20.787-.018c5.823.026 10.034 4.023 10.012 9.34-.004.95-.149 1.623-.371 2.183 2.483-.48 5.541-1.75 7.981-4.884 2.713-3.824 5.906-4.627 8.11-4.627 2.605 0 4.929 1.122 6.13 2.083 1.714 1.374 2.882 2.617 3.013 4.215.147 1.789-1.128 3.21-2.36 4.583zM6.452 50.015v-3.413H3.061v3.413zm61.022 3.432c-.002-.017-.05-.464-1.748-1.825-.578-.464-2.163-1.341-4.016-1.341-2.053 0-3.86 1.084-5.369 3.223l-.044.062c-4.541 5.861-10.932 6.465-13.47 6.465l-.9.003H25.76a1.7 1.7 0 0 1-1.695-1.706c0-.942.759-1.706 1.695-1.706h15.231c.082-.02 1.606-.138 1.606-2.439.018-3.983-3.32-5.9-6.636-5.914l-20.78.019a6.73 6.73 0 0 0-4.063 1.368l-.37.281c-.307.235-.677.341-1.048.335v15.036l.024-.002c.358 0 .712.113 1.01.334.031.024 3.508 2.565 6.737 2.565h19.095c15.09 0 25.594-8.484 29.41-12.74.41-.458 1.501-1.675 1.497-2.018z"/></g></g></svg>