<svg xmlns="http://www.w3.org/2000/svg" width="79" height="61" viewBox="0 0 79 61"><g><g><path fill="#f26522" d="M78.784 42.9v16.47c0 .9-.738 1.63-1.648 1.63H1.864a1.64 1.64 0 0 1-1.648-1.63V42.9c0-.513.243-.994.655-1.303l12.459-9.293v-3.732c0-.512.243-.994.656-1.302L38.508 8.978a1.662 1.662 0 0 1 1.984 0L65.014 27.27c.413.308.656.79.656 1.302v3.732l12.458 9.293c.413.309.656.79.656 1.302zM41.282 49.52h-3.564v8.218h3.564zm21.092 8.218V29.384L39.5 12.321 16.626 29.384V57.74h17.796v-9.848c0-.9.738-1.63 1.648-1.63h6.86c.91 0 1.648.73 1.648 1.63v9.848zm-58.862 0h9.818V36.388l-9.818 7.324zm71.976-14.028l-9.818-7.323v21.351h9.818zM.548 30.796a1.618 1.618 0 0 1 .323-2.283L38.508.438a1.662 1.662 0 0 1 1.984 0l37.636 28.075c.727.542.872 1.565.324 2.283a1.652 1.652 0 0 1-1.317.65c-.346 0-.694-.108-.991-.33L39.5 3.782 2.856 31.116a1.66 1.66 0 0 1-2.308-.32z"/></g></g></svg>